<svg id="Layer_1" fill="#ffffff" enable-background="new 0 0 512 512" viewBox="0 0 512 512" xmlns="http://www.w3.org/2000/svg"><path d="m383.25 77.67h-2.89v-48.67c0-9.65-4.34-18.04-12.22-23.62-7.85-5.56-17.2-6.86-26.36-3.65l-214.5 75.97c-17.9.78-32.22 15.58-32.22 33.67v366.92c0 18.58 15.12 33.7 33.7 33.7h254.49c18.58 0 33.7-15.12 33.7-33.7v-366.92c0-18.58-15.12-33.7-33.7-33.7zm-36.17-60.86c4.23-1.48 8.21-.94 11.81 1.62 3.63 2.57 5.47 6.13 5.47 10.57v48.67h-189.1zm53.88 461.48c0 9.77-7.95 17.72-17.72 17.72h-254.49c-9.77 0-17.72-7.95-17.72-17.72v-366.92c0-9.76 7.94-17.71 17.7-17.72h.02.06 254.44c9.77 0 17.72 7.95 17.72 17.72v366.92zm-30.21-314.68c0 4.42-3.58 7.99-7.99 7.99h-108.72c-4.42 0-7.99-3.58-7.99-7.99s3.58-7.99 7.99-7.99h108.71c4.42 0 8 3.58 8 7.99zm-124.7 38.5c0-4.41 3.58-7.99 7.99-7.99h48.22c4.42 0 7.99 3.58 7.99 7.99s-3.58 7.99-7.99 7.99h-48.22c-4.41 0-7.99-3.58-7.99-7.99zm-42.07-59.02h-45.92c-9.27 0-16.81 7.54-16.81 16.81v45.92c0 9.25 7.54 16.78 16.81 16.78h45.92c9.27 0 16.81-7.53 16.81-16.78v-45.92c0-9.27-7.54-16.81-16.81-16.81zm.83 62.73c0 .42-.38.79-.82.79h-45.92c-.44 0-.82-.37-.82-.79v-45.92c0-.43.39-.82.82-.82h45.92c.43 0 .82.39.82.82zm-.83 49.27h-45.92c-9.27 0-16.81 7.53-16.81 16.78v45.95c0 9.25 7.54 16.78 16.81 16.78h45.92c9.27 0 16.81-7.53 16.81-16.78v-45.95c0-9.25-7.54-16.78-16.81-16.78zm.83 62.73c0 .41-.4.79-.82.79h-45.92c-.42 0-.82-.39-.82-.79v-45.95c0-.42.38-.79.82-.79h45.92c.44 0 .82.37.82.79zm-.83 49.24h-45.92c-9.27 0-16.81 7.54-16.81 16.81v45.92c0 9.27 7.54 16.81 16.81 16.81h45.92c9.27 0 16.81-7.54 16.81-16.81v-45.92c0-9.27-7.54-16.81-16.81-16.81zm.83 62.73c0 .43-.39.82-.82.82h-45.92c-.43 0-.82-.39-.82-.82v-45.92c0-.43.39-.82.82-.82h45.92c.43 0 .82.39.82.82zm165.94-154.21c0 4.42-3.58 7.99-7.99 7.99h-108.72c-4.42 0-7.99-3.58-7.99-7.99s3.58-7.99 7.99-7.99h108.71c4.42 0 8 3.58 8 7.99zm-124.7 38.53c0-4.41 3.58-7.99 7.99-7.99h48.22c4.42 0 7.99 3.58 7.99 7.99s-3.58 7.99-7.99 7.99h-48.22c-4.41 0-7.99-3.58-7.99-7.99zm124.7 73.47c0 4.42-3.58 7.99-7.99 7.99h-108.72c-4.42 0-7.99-3.58-7.99-7.99s3.58-7.99 7.99-7.99h108.71c4.42 0 8 3.58 8 7.99zm-60.5 38.49c0 4.41-3.58 7.99-7.99 7.99h-48.22c-4.42 0-7.99-3.58-7.99-7.99s3.58-7.99 7.99-7.99h48.22c4.42 0 7.99 3.58 7.99 7.99z"/></svg>