<?xml version="1.0" encoding="UTF-8"?>
<svg xmlns="http://www.w3.org/2000/svg" fill="#ffffff" id="Layer_1" data-name="Layer 1" viewBox="0 0 48 48" width="512" height="512"><path d="M32,45H8a5.006,5.006,0,0,1-5-5V8A5.006,5.006,0,0,1,8,3H23.46a5.023,5.023,0,0,1,3.577,1.5l8.538,8.739A4.989,4.989,0,0,1,37,16.74v7.45a1,1,0,0,1-2,0V16.74a3,3,0,0,0-.856-2.1L25.605,5.9A3.006,3.006,0,0,0,23.46,5H8A3,3,0,0,0,5,8V40a3,3,0,0,0,3,3H32a2.864,2.864,0,0,0,1.1-.215,1,1,0,0,1,.761,1.85A4.868,4.868,0,0,1,32,45Z"/><path d="M35.59,16H29a5.006,5.006,0,0,1-5-5V4.31a1,1,0,1,1,2,0V11a3,3,0,0,0,3,3h6.59a1,1,0,0,1,0,2Z"/><path d="M34,44.854a1.992,1.992,0,0,1-1.108-.335L29.68,42.377A14.967,14.967,0,0,1,23,29.9V28.188a2.009,2.009,0,0,1,1.541-1.945,29.924,29.924,0,0,0,8.376-3.779,2,2,0,0,1,2.166,0,29.909,29.909,0,0,0,8.376,3.779A2.009,2.009,0,0,1,45,28.188V29.9a14.967,14.967,0,0,1-6.68,12.481l-3.211,2.141A1.993,1.993,0,0,1,34,44.854Zm0-20.71a31.9,31.9,0,0,1-8.976,4.042L25,29.9a12.973,12.973,0,0,0,5.789,10.817L34,42.854l3.211-2.141A12.973,12.973,0,0,0,43,29.9V28.188a32,32,0,0,1-9-4.043h0Z"/><path d="M33,36a1,1,0,0,1-.707-.293l-2-2a1,1,0,0,1,1.414-1.414L33,33.586l3.293-3.293a1,1,0,0,1,1.414,1.414l-4,4A1,1,0,0,1,33,36Z"/><path d="M18,13H10a1,1,0,0,1,0-2h8a1,1,0,0,1,0,2Z"/><path d="M24,19H10a1,1,0,0,1,0-2H24a1,1,0,0,1,0,2Z"/><path d="M26,25H10a1,1,0,0,1,0-2H26a1,1,0,0,1,0,2Z"/><path d="M20,31H10a1,1,0,0,1,0-2H20a1,1,0,0,1,0,2Z"/><path d="M20,37H10a1,1,0,0,1,0-2H20a1,1,0,0,1,0,2Z"/></svg>
