<svg id="Capa_1" enable-background="new 0 0 512.502 512.502" fill="#ffffff" height="512" viewBox="0 0 512.502 512.502" width="512" xmlns="http://www.w3.org/2000/svg"><g><g id="Page-1_28_"><g id="_x30_29---Digital-Signature" transform="translate(0 -1)"><path id="Path_110_" clip-rule="evenodd" d="m449.821 132.335c4.47 1.485 9.298-.933 10.786-5.402l11.375-34.133c.963-2.896.308-6.086-1.718-8.369-2.026-2.282-5.117-3.31-8.107-2.697-2.99.614-5.425 2.776-6.389 5.672l-11.375 34.133c-.715 2.151-.544 4.498.474 6.523 1.019 2.027 2.801 3.564 4.954 4.273z" fill-rule="evenodd"/><path id="Shape_115_" d="m488.29 145.844 22.255-67.669c3.228-9.91-.062-20.781-8.243-27.238l5.504-16.717c3.013-8.502 1.193-17.968-4.758-24.746s-15.102-9.808-23.922-7.921-15.93 8.397-18.586 17.017l-5.513 16.742c-10.45.279-19.588 7.119-22.801 17.067l-28.186 85.658h-352.589c-28.265.028-51.172 22.935-51.2 51.2v273.067c.028 28.265 22.935 51.172 51.2 51.2h409.6c28.265-.028 51.172-22.935 51.2-51.2v-273.068c-.006-17.619-9.053-34.003-23.961-43.392zm-136.269 191.385c.532 8.989 5.905 16.98 14.029 20.864l-5.333 16.213c-1.473 4.477.963 9.301 5.44 10.773 4.477 1.473 9.301-.963 10.773-5.44l5.325-16.213c8.837 1.814 17.951-1.423 23.663-8.405l19.166-22.844c2.04-2.425 3.598-5.217 4.591-8.226l22.844-69.402v207.753h-392.535v-273.066h327.211l-35.84 108.843c-1.016 3.019-1.428 6.209-1.212 9.387zm124.723-313.276c.876-2.655 3.103-4.641 5.841-5.21s5.571.367 7.433 2.453 2.468 5.008 1.592 7.663l-4.958 15.206-9.037-2.987-5.837-1.937zm-28.305 33.724c.647-1.968 2.051-3.599 3.901-4.532s3.996-1.092 5.963-.443l13.013 4.267 18.014 5.973h.094c4.077 1.392 6.267 5.812 4.907 9.899l-41.122 124.988v.111l-39.74 120.67c-.31.939-.8 1.808-1.442 2.56l-19.166 22.852c-2.048 2.46-5.397 3.409-8.431 2.389l-5.001-1.647h-.043l-4.975-1.638c-3.051-.994-5.179-3.759-5.359-6.963l-1.869-29.79c-.068-.991.063-1.987.384-2.927l39.253-119.407v-.06zm46.745 404.625c0 18.851-15.282 34.133-34.133 34.133h-409.6c-18.851 0-34.133-15.282-34.133-34.133v-273.066c0-18.851 15.282-34.133 34.133-34.133h346.974l-5.641 17.067h-332.8c-9.426 0-17.067 7.641-17.067 17.067v273.067c0 9.426 7.641 17.067 17.067 17.067h392.533c9.426 0 17.067-7.641 17.067-17.067v-259.628l13.107-39.842c7.903 6.49 12.486 16.176 12.493 26.402z"/><path id="Shape_114_" d="m324.518 368.436h-17.067c-15.132 1.085-29.719-5.871-38.4-18.313-3.134-4.734-8.395-7.625-14.071-7.731-5.501.075-10.66 2.685-13.978 7.074l-27.93 38.81c-15.872-15.94-36.825-25.819-59.221-27.921v-51.652h17.067c18.851 0 34.133-15.282 34.133-34.133s-15.282-34.133-34.133-34.133-34.133 15.282-34.133 34.133v16.691c-6.994-.113-13.825-2.134-19.755-5.845-3.391-3.236-8.757-3.132-12.019.234-3.262 3.365-3.2 8.732.14 12.02 1.638 1.638 10.24 9.096 31.633 10.718v51.516h-17.067c-18.851 0-34.133 15.282-34.133 34.133s15.282 34.133 34.133 34.133 34.133-15.282 34.133-34.133v-16.521c17.67 2.015 34.149 9.914 46.788 22.426 3.524 3.848 8.611 5.878 13.815 5.513 5.03-.326 9.645-2.903 12.561-7.014l27.87-38.852c11.744 17.283 31.705 27.124 52.565 25.916h17.067c4.713 0 8.533-3.82 8.533-8.533s-3.818-8.536-8.531-8.536zm-170.667-93.867c0-9.426 7.641-17.067 17.067-17.067s17.067 7.641 17.067 17.067-7.641 17.067-17.067 17.067h-17.067zm-17.067 119.467c0 9.426-7.641 17.067-17.067 17.067s-17.067-7.641-17.067-17.067 7.641-17.067 17.067-17.067h17.067z"/></g></g></g></svg>