<?xml version="1.0" encoding="iso-8859-1"?>
<!-- Uploaded to: SVG Repo, www.svgrepo.com, Generator: SVG Repo Mixer Tools -->
<!DOCTYPE svg PUBLIC "-//W3C//DTD SVG 1.1//EN" "http://www.w3.org/Graphics/SVG/1.1/DTD/svg11.dtd">
<svg fill="#f70629" version="1.1" id="Capa_1" xmlns="http://www.w3.org/2000/svg" xmlns:xlink="http://www.w3.org/1999/xlink" 
	 width="800px" height="800px" viewBox="0 0 93.465 93.465"
	 xml:space="preserve">
<g>
	<path d="M92.781,74.906L73.302,55.428c-0.896-0.896-2.349-0.896-3.244,0L59.825,65.661c-2.782-0.769-10.176-3.475-18.683-11.979
		c-8.826-8.827-12.402-17.625-13.289-20.113l10.173-10.173c0.431-0.43,0.673-1.014,0.673-1.623s-0.242-1.192-0.673-1.622
		L18.547,0.672c-0.896-0.896-2.349-0.896-3.245,0L3.916,12.059c-0.148,0.147-0.273,0.313-0.376,0.495l-0.021,0.024
		c-9.065,11.141,0.009,36.045,20.66,56.697c14.696,14.695,32.502,24.19,45.365,24.19c4.592,0,8.373-1.163,11.242-3.458l0.268-0.184
		c0.117-0.08,0.225-0.169,0.324-0.27L92.781,78.15c0.431-0.431,0.673-1.015,0.673-1.622C93.454,75.92,93.211,75.337,92.781,74.906z"
		/>
</g>
</svg>