<?xml version="1.0" encoding="UTF-8" standalone="no"?>
<!-- Created with Inkscape (http://www.inkscape.org/) -->

<svg
   version="1.1"
   id="svg93"
   xml:space="preserve"
   width="682.66669"
   height="682.66669"
   viewBox="0 0 682.66669 682.66669"
   xmlns="http://www.w3.org/2000/svg"
   xmlns:svg="http://www.w3.org/2000/svg"><defs
     id="defs97"><clipPath
       clipPathUnits="userSpaceOnUse"
       id="clipPath117"><path
         d="M 0,512 H 512 V 0 H 0 Z"
         id="path115" /></clipPath></defs><g
     id="g99"
     transform="matrix(1.3333333,0,0,-1.3333333,0,682.66667)"><path
       d="m 334.617,286.765 h -39.856 v -87.442 h 39.856 z"
       style="fill:none;stroke:#ffffff;stroke-width:15;stroke-linecap:round;stroke-linejoin:round;stroke-miterlimit:10;stroke-dasharray:none;stroke-opacity:1"
       id="path101" /><g
       id="g103"
       transform="translate(366.2969,325.8892)"><path
         d="m 0,0 h 21.147 v -39.124 h -145.51 V 0 H -35"
         style="fill:none;stroke:#ffffff;stroke-width:15;stroke-linecap:round;stroke-linejoin:round;stroke-miterlimit:10;stroke-dasharray:none;stroke-opacity:1"
         id="path105" /></g><g
       id="g107"
       transform="translate(200.2534,425.5249)"><path
         d="M 0,0 V -121.077 H 41.681"
         style="fill:none;stroke:#ffffff;stroke-width:15;stroke-linecap:round;stroke-linejoin:round;stroke-miterlimit:10;stroke-dasharray:none;stroke-opacity:1"
         id="path109" /></g><g
       id="g111"><g
         id="g113"
         clip-path="url(#clipPath117)"><g
           id="g119"
           transform="translate(387.4438,304.4478)"><path
             d="M 0,0 H 41.681 V 200.052 H -187.19 v -43.975"
             style="fill:none;stroke:#ffffff;stroke-width:15;stroke-linecap:round;stroke-linejoin:round;stroke-miterlimit:10;stroke-dasharray:none;stroke-opacity:1"
             id="path121" /></g><g
           id="g123"
           transform="translate(360.8691,442.6572)"><path
             d="m 0,0 v 0 c -6.341,6.341 -16.622,6.341 -22.963,0 l -37.116,-37.116 c -0.073,-0.073 -0.192,-0.073 -0.265,0 l -14.504,14.504 c -6.341,6.341 -16.623,6.341 -22.964,0 -6.341,-6.341 -6.341,-16.622 0,-22.963 l 24.1,-24.1 c 7.456,-7.456 19.545,-7.456 27.001,0 L 0,-22.963 C 6.341,-16.622 6.341,-6.341 0,0 Z"
             style="fill:none;stroke:#ffffff;stroke-width:15;stroke-linecap:round;stroke-linejoin:round;stroke-miterlimit:10;stroke-dasharray:none;stroke-opacity:1"
             id="path125" /></g><g
           id="g127"
           transform="translate(343.0078,55.5122)"><path
             d="M 0,0 H 26.579"
             style="fill:none;stroke:#ffffff;stroke-width:15;stroke-linecap:round;stroke-linejoin:round;stroke-miterlimit:10;stroke-dasharray:none;stroke-opacity:1"
             id="path129" /></g><g
           id="g131"
           transform="translate(343.0078,103.5239)"><path
             d="M 0,0 H 50.584"
             style="fill:none;stroke:#ffffff;stroke-width:15;stroke-linecap:round;stroke-linejoin:round;stroke-miterlimit:10;stroke-dasharray:none;stroke-opacity:1"
             id="path133" /></g><g
           id="g135"
           transform="translate(391.7954,151.5356)"><path
             d="M 0,0 H -48.788"
             style="fill:none;stroke:#ffffff;stroke-width:15;stroke-linecap:round;stroke-linejoin:round;stroke-miterlimit:10;stroke-dasharray:none;stroke-opacity:1"
             id="path137" /></g><g
           id="g139"
           transform="translate(359.6172,199.5479)"><path
             d="M 0,0 H -88.679"
             style="fill:none;stroke:#ffffff;stroke-width:15;stroke-linecap:round;stroke-linejoin:round;stroke-miterlimit:10;stroke-dasharray:none;stroke-opacity:1"
             id="path141" /></g><g
           id="g143"
           transform="translate(294.7607,247.5596)"><path
             d="m 0,0 h -22.824 c -30.088,0 -57.59,-11.07 -78.655,-29.36 -8.213,-7.131 -18.829,-10.88 -29.705,-10.88 l -19.511,-0.005 v -159.569 l 19.511,-0.005 c 10.876,0 21.492,-3.749 29.705,-10.88 21.065,-18.29 48.567,-29.361 78.655,-29.361 h 97.65 c 13.258,0 24.006,10.748 24.006,24.006 v 0.001 c 0,13.258 -10.748,24.006 -24.006,24.006 h 24.006 c 13.258,0 24.005,10.747 24.005,24.005 0,13.259 -10.747,24.006 -24.005,24.006 h 6.867 c 13.258,0 24.006,10.748 24.006,24.006 0,13.259 -10.748,24.007 -24.006,24.007 h -8.664 c 13.257,0 24.006,10.747 24.006,24.005 0,13.258 -10.749,24.006 -24.006,24.006 H 64.856 v 24.006 C 64.856,-10.748 54.109,0 40.851,0 h -0.995"
             style="fill:none;stroke:#ffffff;stroke-width:15;stroke-linecap:round;stroke-linejoin:round;stroke-miterlimit:10;stroke-dasharray:none;stroke-opacity:1"
             id="path145" /></g><g
           id="g147"
           transform="translate(82.8755,167.7314)"><path
             d="M 0,0 V -133.192 H 61.19 V 52.79 L 0,52.79 V 35"
             style="fill:none;stroke:#ffffff;stroke-width:15;stroke-linecap:round;stroke-linejoin:round;stroke-miterlimit:10;stroke-dasharray:none;stroke-opacity:1"
             id="path149" /></g></g></g></g></svg>
